# xmcd
#
# Track frame offsets: 
#        150
#        12828
#        25638
#        40561
#        53758
#        68815
#        79781
#        91704
#        102971
#        115075
#        128248
#        129514
#        142075
#        153925
#        169681
#        187483
#        200474
#        212058
#        224801
#        237803
#        253848
#        266050
#        278753
#        291523
#
# Disc length: 4012 seconds
#
# Revision: 1
# Processed by: cddbd v1.5.2PL0 Copyright (c) Steve Scherf et al.
# Submitted via: ExactAudioCopyFreeDBPlugin 1.0
#
DISCID=640faa18
DTITLE=The Velvelettes - The Motown Anthology
DYEAR=2004
DGENRE=Soul
TTITLE0=The Boy from Crosstown (alternate mix)
TTITLE1=A Love So Deep Inside
TTITLE2=Ain't No Place Like Motown
TTITLE3=He's the One
TTITLE4=Everybody Needs Love
TTITLE5=Something's Happening
TTITLE6=Love is Good
TTITLE7=These Things Will Keep Me Loving You
TTITLE8=These Things Will Keep Me Loving You (alternate long version)
TTITLE9=Your Heart Belongs to Me
TTITLE10=Seasons Greetings from Motown 1966
TTITLE11=I'm in Love (And I Know It)
TTITLE12=(We've Got) Honey Love
TTITLE13=I'm So Glad It's Twilight Time
TTITLE14=Bring Back the Sunshine
TTITLE15=(The) Nitty Gritty
TTITLE16=There He Goes
TTITLE17=The Monkey Time
TTITLE18=I Can't Wait Until I See My Baby's Face
TTITLE19=(Ain't That) Good News
TTITLE20=Puisque Je Sais Qu'il Est à Moi ("As Long As I Know He's Mine
TTITLE20=")
TTITLE21=Tu Perds Le Plus Merveilleux Garcon Du Monde ("You Lost The S
TTITLE21=weetest Boy')
TTITLE22=Le Hokey Pokey ("(The) Monkey")
TTITLE23=Je Veux Crier ("My Foolish Heart (Keeps Hanging On To A Memor
TTITLE23=y)")
EXTD=
EXTT0=
EXTT1=
EXTT2=
EXTT3=
EXTT4=
EXTT5=
EXTT6=
EXTT7=
EXTT8=
EXTT9=
EXTT10=
EXTT11=
EXTT12=
EXTT13=
EXTT14=
EXTT15=
EXTT16=
EXTT17=
EXTT18=
EXTT19=
EXTT20=
EXTT21=
EXTT22=
EXTT23=
PLAYORDER=
